<?xml version="1.0" encoding="utf-8"?>
<!-- Generator: Adobe Illustrator 21.0.0, SVG Export Plug-In . SVG Version: 6.00 Build 0)  -->
<svg version="1.1" id="Layer_1" xmlns="http://www.w3.org/2000/svg" xmlns:xlink="http://www.w3.org/1999/xlink" x="0px" y="0px"
	 viewBox="0 0 24 24" style="enable-background:new 0 0 24 24;" xml:space="preserve">
<style type="text/css">
	.st0{fill:#364C73;}
	.st1{fill:none;}
	.st2{fill:#FFFFFF;}
	.st3{fill:#72C7E7;}
</style>
<g>
	<path class="st0" d="M21,24H3c-1.7,0-3-1.4-3-3V3c0-1.7,1.4-3,3-3h18c1.7,0,3,1.4,3,3v18C24,22.6,22.6,24,21,24z"/>
	<g>
		<rect class="st1" width="24" height="24"/>
		<g>
			<rect x="9.6" y="15.4" class="st2" width="1" height="5.2"/>
			<g>
				<path class="st2" d="M14.2,16c0.5,0,0.8,0.1,1,0.2l0.1,0l0.2-0.8l0,0c-0.2-0.1-0.7-0.3-1.3-0.3c-0.8,0-1.5,0.3-2,0.8
					c-0.5,0.5-0.8,1.2-0.8,2c0,0.8,0.2,1.4,0.7,1.9c0.5,0.5,1.1,0.7,1.9,0.7c0.7,0,1.2-0.2,1.5-0.3l0,0l-0.2-0.8l-0.1,0
					c-0.3,0.1-0.6,0.2-1.1,0.2c-1,0-1.7-0.7-1.7-1.8c0-0.5,0.2-1,0.4-1.3C13.3,16.2,13.7,16,14.2,16"/>
				<path class="st2" d="M18.3,15.9c0.3,0,0.6,0.1,0.8,0.3c0.3,0.3,0.4,0.8,0.4,1H17C17,16.8,17.4,15.9,18.3,15.9 M20.1,16
					c-0.4-0.6-1-0.9-1.7-0.9c-0.7,0-1.3,0.3-1.8,0.8c-0.4,0.5-0.6,1.2-0.6,2c0,0.8,0.2,1.4,0.7,1.9c0.5,0.5,1.1,0.7,1.9,0.7
					c0.8,0,1.4-0.2,1.7-0.3l0,0L20,19.4l-0.1,0c-0.3,0.1-0.7,0.3-1.4,0.3c-0.5,0-0.9-0.1-1.2-0.4c-0.3-0.3-0.5-0.7-0.5-1.2h3.5
					l0-0.1c0-0.1,0-0.2,0-0.4C20.5,17.3,20.5,16.6,20.1,16"/>
			</g>
			<polygon class="st3" points="3.4,3.4 3.4,20.6 6.8,20.6 6.8,18.6 5.4,18.6 5.4,5.4 18.7,5.4 18.7,12.7 20.6,12.7 20.6,3.4 			"/>
		</g>
	</g>
</g>
</svg>
